<svg width="125" height="40" viewBox="0 0 125 40" fill="none" xmlns="http://www.w3.org/2000/svg">
<g clip-path="url(#clip0_3451_19189)">
<path d="M19.2254 1.35083L11.6996 5.67302V19.1628L7.54724 21.5699L3.36952 19.1608V14.3447L7.54724 11.9591L10.2335 13.517V9.6204L7.52382 8.08205L0 12.453V21.0994L7.5492 25.4469L15.073 21.0994V7.61157L19.2507 5.20254L23.4264 7.61157V12.4062L19.2507 14.8367L16.5411 13.2652V17.1423L19.2254 18.6904L26.8235 14.3682V5.67302L19.2254 1.35083Z" fill="#020005"></path>
<path fill-rule="evenodd" clip-rule="evenodd" d="M63.57 20.0216H66.9436V1.53027H63.57V20.0216ZM41.8829 6.87737C43.4819 6.87737 44.8075 7.51966 45.8557 8.80226C46.9061 10.0849 47.4293 11.6759 47.4293 13.5754C47.4293 15.4749 46.904 17.066 45.8557 18.3486C44.8054 19.6312 43.4819 20.2734 41.8829 20.2734C40.7507 20.2734 39.7668 19.924 38.9351 19.2232C38.1192 18.5067 37.5199 17.5404 37.1353 16.3241V25.0192H33.7617V7.12725H37.1353V10.8247C37.5178 9.60852 38.1192 8.64999 38.9351 7.95109C39.7688 7.23463 40.7507 6.87737 41.8829 6.87737ZM40.6569 17.1987C41.5725 17.1987 42.3477 16.8571 42.9801 16.1738C43.6125 15.4749 43.9288 14.6081 43.9288 13.5754C43.9288 12.5427 43.6125 11.7091 42.9801 11.0258C42.3477 10.3269 41.5725 9.97553 40.6569 9.97553C39.6399 9.97553 38.8003 10.3172 38.1328 11.0004C37.467 11.6837 37.1332 12.5407 37.1332 13.5735C37.1332 14.6062 37.467 15.473 38.1328 16.1719C38.7985 16.8551 39.6399 17.1968 40.6569 17.1968V17.1987ZM48.3252 13.5754C48.3252 15.4749 48.9831 17.066 50.299 18.3486C51.6148 19.6312 53.2567 20.2734 55.2224 20.2734C57.1884 20.2734 58.8302 19.6312 60.1459 18.3486C61.4617 17.066 62.1196 15.4749 62.1196 13.5754C62.1196 11.6759 61.4617 10.0849 60.1459 8.80226C58.8302 7.51966 57.1884 6.87737 55.2224 6.87737C53.2567 6.87737 51.6148 7.51966 50.299 8.80226C48.9831 10.0849 48.3252 11.6759 48.3252 13.5754ZM52.7978 16.1738C52.1477 15.4749 51.8236 14.6081 51.8236 13.5754C51.8236 12.5427 52.1477 11.7091 52.7978 11.0258C53.4479 10.3269 54.2562 9.97553 55.2224 9.97553C56.1888 9.97553 56.9969 10.3172 57.647 11.0004C58.2971 11.6837 58.6213 12.5407 58.6213 13.5735C58.6213 14.6062 58.2971 15.473 57.647 16.1719C56.9969 16.8551 56.1888 17.1968 55.2224 17.1968C54.2562 17.1968 53.4479 16.8551 52.7978 16.1719V16.1738ZM98.1086 18.3486C96.7928 17.066 96.1348 15.4749 96.1348 13.5754C96.1348 11.6759 96.7928 10.0849 98.1086 8.80226C99.4245 7.51966 101.066 6.87737 103.032 6.87737C104.998 6.87737 106.64 7.51966 107.956 8.80226C109.271 10.0849 109.929 11.6759 109.929 13.5754C109.929 15.4749 109.271 17.066 107.956 18.3486C106.64 19.6312 104.998 20.2734 103.032 20.2734C101.066 20.2734 99.4263 19.6312 98.1086 18.3486ZM99.6314 13.5754C99.6314 14.6081 99.9553 15.4749 100.605 16.1738C101.256 16.8571 102.064 17.1987 103.03 17.1987C103.996 17.1987 104.805 16.8571 105.455 16.1738C106.105 15.4749 106.429 14.6081 106.429 13.5754C106.429 12.5427 106.105 11.6837 105.455 11.0024C104.805 10.3191 103.996 9.97748 103.03 9.97748C102.064 9.97748 101.256 10.3269 100.605 11.0278C99.9553 11.711 99.6314 12.5603 99.6314 13.5774V13.5754ZM118.907 6.87737C120.34 6.87737 121.49 7.37714 122.355 8.37668C123.237 9.37619 123.679 10.651 123.679 12.1991V20.0196H120.305V12.7984C120.305 11.9648 120.04 11.2816 119.505 10.7486C118.972 10.2157 118.306 9.94819 117.506 9.94819C116.606 9.94819 115.874 10.2157 115.307 10.7486C114.741 11.2816 114.458 11.9648 114.458 12.7984V20.0196H111.085V7.12725H114.458V10.4265C114.792 9.32739 115.35 8.46063 116.133 7.8281C116.934 7.1956 117.857 6.87932 118.907 6.87932V6.87737ZM75.0472 16.5838L78.4948 7.13898H81.919L74.8226 25.0309H71.3985L73.1985 20.4823L67.9254 7.13898H71.5741L75.0472 16.5838ZM91.5121 7.12725V10.3582C90.8093 8.24978 89.0737 7.12725 86.7642 7.12725C83.2776 7.12725 81.2162 10.1727 81.2162 13.3743C81.2162 16.576 83.262 19.8713 86.7642 19.8713C89.0737 19.8713 90.8093 18.2061 91.5121 16.0977V18.5711C91.5121 19.6214 91.1704 20.4862 90.4872 21.1695C89.8038 21.8528 88.9723 22.1944 87.9884 22.1944C86.655 22.1944 85.6652 21.5287 85.0151 20.1953L81.9911 21.7942C82.5574 22.8445 83.3654 23.684 84.4157 24.3185C85.4661 24.9509 86.6569 25.2672 87.9884 25.2672C89.9541 25.2672 91.596 24.6268 92.9118 23.3424C94.2277 22.0597 94.8854 20.4687 94.8854 18.5692V7.12725H91.5121ZM90.5378 15.8244C89.8879 16.4744 89.0718 16.7985 88.0898 16.7985C87.1079 16.7985 86.3406 16.4744 85.6907 15.8244C85.0406 15.1587 84.7164 14.3426 84.7164 13.3763C84.7164 12.4099 85.0406 11.6017 85.6907 10.9516C86.3406 10.3015 87.1392 9.97748 88.0898 9.97748C89.0406 9.97748 89.8898 10.3015 90.5378 10.9516C91.1879 11.5841 91.5121 12.3924 91.5121 13.3763C91.5121 14.3602 91.1879 15.1762 90.5378 15.8244Z" fill="#020005"></path>
<path d="M36.7047 29.9385C38.6771 29.9385 39.8606 31.3819 39.8606 33.1661C39.8606 34.9502 38.6771 36.3936 36.7047 36.3936C34.7323 36.3936 33.5488 34.9502 33.5488 33.1661C33.5488 31.3819 34.7323 29.9385 36.7047 29.9385ZM36.7047 35.3178C37.915 35.3178 38.6412 34.3585 38.6412 33.1661C38.6412 31.9737 37.915 31.0143 36.7047 31.0143C35.4943 31.0143 34.7681 31.9737 34.7681 33.1661C34.7681 34.3585 35.4943 35.3178 36.7047 35.3178ZM43.161 30.0102C44.9362 30.0102 45.6176 30.9426 45.6176 32.0185C45.6176 33.0943 44.7927 34.0268 43.3045 34.0268H41.8162V36.3219H40.5969V30.0102H43.161ZM43.2955 33.0226C43.9858 33.0226 44.3983 32.6012 44.3983 32.0543C44.3983 31.4447 43.9858 31.0861 43.2955 31.0861H41.8162V33.0226H43.2955ZM50.7281 31.0861H47.5006V32.664H50.1543V33.6681H47.5006V35.2461H50.7281V36.3219H46.2812V30.0102H50.7281V31.0861ZM51.6766 36.3219V30.0102H53.6132L55.9263 35.4433C55.9442 35.4881 55.9801 35.533 56.0429 35.515C56.1325 35.4881 56.1235 35.4164 56.0966 35.3447C56.007 35.1026 55.9084 34.8874 55.9084 34.6005V30.0102H57.1277V36.3219H55.1911L52.878 30.8888C52.8601 30.844 52.8242 30.7992 52.7615 30.8171C52.6718 30.844 52.6808 30.9157 52.7077 30.9874C52.7973 31.2295 52.896 31.4447 52.896 31.7316V36.3219H51.6766ZM60.7516 36.3219V30.0102H62.8674L64.1764 34.7799C64.2212 34.9412 64.2302 35.1743 64.2302 35.3895C64.2302 35.4612 64.2661 35.4971 64.3378 35.4971C64.4095 35.4971 64.4454 35.4612 64.4454 35.3895C64.4454 35.1743 64.4543 34.9412 64.4992 34.7799L65.8081 30.0102H67.924V36.3219H66.7047V31.5971C66.7047 31.3102 66.7764 31.0861 66.8571 30.844C66.884 30.7633 66.8571 30.7095 66.7764 30.6916C66.7316 30.6826 66.6868 30.7095 66.6688 30.7723L65.0909 36.3219H63.5847L62.0068 30.7723C61.9888 30.7095 61.944 30.6826 61.8992 30.6916C61.8185 30.7095 61.7916 30.7633 61.8185 30.844C61.8992 31.0861 61.9709 31.3102 61.9709 31.5971V36.3219H60.7516ZM71.8176 29.9385C73.79 29.9385 74.9734 31.3819 74.9734 33.1661C74.9734 34.9502 73.79 36.3936 71.8176 36.3936C69.8451 36.3936 68.6617 34.9502 68.6617 33.1661C68.6617 31.3819 69.8451 29.9385 71.8176 29.9385ZM71.8176 35.3178C73.0279 35.3178 73.7541 34.3585 73.7541 33.1661C73.7541 31.9737 73.0279 31.0143 71.8176 31.0143C70.6072 31.0143 69.881 31.9737 69.881 33.1661C69.881 34.3585 70.6072 35.3178 71.8176 35.3178ZM75.71 36.3219V30.0102H77.6465L79.9596 35.4433C79.9776 35.4881 80.0134 35.533 80.0762 35.515C80.1658 35.4881 80.1569 35.4164 80.13 35.3447C80.0403 35.1026 79.9417 34.8874 79.9417 34.6005V30.0102H81.161V36.3219H79.2245L76.9114 30.8888C76.8934 30.844 76.8576 30.7992 76.7948 30.8171C76.7052 30.844 76.7141 30.9157 76.741 30.9874C76.8307 31.2295 76.9293 31.4447 76.9293 31.7316V36.3219H75.71ZM86.6992 31.0861H83.4716V32.664H86.1254V33.6681H83.4716V35.2461H86.6992V36.3219H82.2523V30.0102H86.6992V31.0861ZM86.9339 30.0102H88.2249L89.6773 32.4668C89.7401 32.5743 89.758 32.6999 89.767 32.8612C89.767 32.915 89.7849 32.9868 89.8746 32.9868C89.9642 32.9868 89.9822 32.915 89.9822 32.8612C89.9911 32.6999 90.0091 32.5743 90.0718 32.4668L91.5242 30.0102H92.8153L90.4842 33.8474V36.3219H89.2649V33.8474L86.9339 30.0102ZM98.2314 32.4578C99.7107 32.6281 100.742 33.0047 100.742 34.4392C100.742 35.4792 99.8452 36.3936 98.1596 36.3936C96.4024 36.3936 95.5776 35.264 95.5776 34.0985H96.761C96.7789 34.5826 97.0031 35.3895 98.1596 35.3895C99.2086 35.3895 99.5224 34.8605 99.5224 34.5109C99.5224 34.0805 99.2445 33.7668 98.1596 33.6233C96.3665 33.3902 95.7927 32.8074 95.7927 31.7316C95.7927 30.7454 96.6803 29.9385 98.1776 29.9385C99.8183 29.9385 100.491 30.9247 100.509 31.9468H99.3521C99.3521 31.5343 99.0741 30.9426 98.1596 30.9426C97.2362 30.9426 97.0031 31.4088 97.0031 31.6778C97.0031 31.9199 97.1196 32.3323 98.2314 32.4578ZM101.122 30.0102H106.143V31.0861H104.242V36.3219H103.023V31.0861H101.122V30.0102ZM110.61 36.3219L110.126 34.8874H107.508L107.024 36.3219H105.661L107.956 30.0102H109.678L111.973 36.3219H110.61ZM107.84 33.8833H109.794L109.068 31.7226C108.987 31.4716 108.934 31.1399 108.925 30.8261C108.925 30.7723 108.907 30.7005 108.817 30.7005C108.727 30.7005 108.71 30.7723 108.71 30.8261C108.701 31.1399 108.647 31.4716 108.566 31.7226L107.84 33.8833ZM111.992 33.1661C111.992 31.3819 113.121 29.9385 115.112 29.9385C117.075 29.9385 117.936 31.3281 118.016 32.3771H116.806C116.725 31.7585 116.205 31.0143 115.13 31.0143C113.91 31.0143 113.211 31.9737 113.211 33.1661C113.211 34.3585 113.91 35.3178 115.13 35.3178C116.205 35.3178 116.725 34.5736 116.806 33.955H118.016C117.936 35.004 117.075 36.3936 115.112 36.3936C113.121 36.3936 111.992 34.9502 111.992 33.1661ZM123.915 36.3219H122.373L120.481 33.713L119.97 34.2868V36.3219H118.751V30.0102H119.97V31.9916C119.97 32.3233 119.889 32.4668 119.746 32.655C119.701 32.7178 119.71 32.7716 119.755 32.8074C119.809 32.8523 119.871 32.8164 119.907 32.7805L122.301 30.0102H123.771L121.279 32.8164L123.915 36.3219Z" fill="#020005"></path>
</g>
<defs>
<clipPath id="clip0_3451_19189">
<rect width="124.138" height="40" fill="white"></rect>
</clipPath>
</defs>
</svg>