<svg xmlns="http://www.w3.org/2000/svg" width="12" height="6" viewBox="0 0 12 6" fill="none">
  <path d="M 11.646 6.354 C 11.842 6.549 12.158 6.549 12.354 6.354 C 12.549 6.158 12.549 5.842 12.354 5.646 L 12 6 L 11.646 6.354 Z M 6 0 L 6.354 -0.354 C 6.158 -0.549 5.842 -0.549 5.646 -0.354 L 6 0 Z M -0.354 5.646 C -0.549 5.842 -0.549 6.158 -0.354 6.354 C -0.158 6.549 0.158 6.549 0.354 6.354 L 0 6 L -0.354 5.646 Z M 12 6 L 12.354 5.646 L 6.354 -0.354 L 6 0 L 5.646 0.354 L 11.646 6.354 L 12 6 Z M 6 0 L 5.646 -0.354 L -0.354 5.646 L 0 6 L 0.354 6.354 L 6.354 0.354 L 6 0 Z" fill="currentColor" fill-rule="nonzero"></path>
</svg>