<svg width="16" height="16" viewBox="0 0 16 16" fill="none" xmlns="http://www.w3.org/2000/svg">
<path d="M10.6666 14V12.6667C10.6666 11.9594 10.3856 11.2811 9.88554 10.781C9.38544 10.281 8.70716 10 7.99992 10H3.99992C3.29267 10 2.6144 10.281 2.1143 10.781C1.6142 11.2811 1.33325 11.9594 1.33325 12.6667V14M14.6666 13.9999V12.6666C14.6661 12.0757 14.4695 11.5018 14.1075 11.0348C13.7455 10.5678 13.2387 10.2343 12.6666 10.0866M10.6666 2.08659C11.2402 2.23346 11.7486 2.56706 12.1117 3.0348C12.4747 3.50254 12.6718 4.07781 12.6718 4.66992C12.6718 5.26204 12.4747 5.83731 12.1117 6.30505C11.7486 6.77279 11.2402 7.10639 10.6666 7.25326M8.66658 4.66667C8.66658 6.13943 7.47268 7.33333 5.99992 7.33333C4.52716 7.33333 3.33325 6.13943 3.33325 4.66667C3.33325 3.19391 4.52716 2 5.99992 2C7.47268 2 8.66658 3.19391 8.66658 4.66667Z" stroke="#141635" stroke-width="2" stroke-linecap="round" stroke-linejoin="round"></path>
</svg>