<svg width="16" height="16" viewBox="0 0 16 16" fill="none" xmlns="http://www.w3.org/2000/svg">
<g clip-path="url(#clip0_2184_187)">
<path d="M9.33325 4.66665L11.3333 6.66665M6.26659 7.06671L1.72392 11.6094C1.47385 11.8594 1.33333 12.1985 1.33325 12.552V14C1.33325 14.1769 1.40349 14.3464 1.52851 14.4714C1.65354 14.5965 1.82311 14.6667 1.99992 14.6667H3.99992C4.17673 14.6667 4.3463 14.5965 4.47132 14.4714C4.59635 14.3464 4.66659 14.1769 4.66659 14V13.3334C4.66659 13.1566 4.73682 12.987 4.86185 12.862C4.98687 12.7369 5.15644 12.6667 5.33325 12.6667H5.99992C6.17673 12.6667 6.3463 12.5965 6.47132 12.4714C6.59635 12.3464 6.66659 12.1769 6.66659 12V11.3334C6.66659 11.1566 6.73682 10.987 6.86185 10.862C6.98687 10.7369 7.15644 10.6667 7.33325 10.6667H7.44792C7.80151 10.6666 8.1406 10.5261 8.39059 10.276L8.93325 9.73338M8.26654 1.79993C8.57473 1.51411 8.97954 1.35529 9.39987 1.35529C9.8202 1.35529 10.225 1.51411 10.5332 1.79993L14.1999 5.4666C14.4857 5.77479 14.6445 6.1796 14.6445 6.59993C14.6445 7.02026 14.4857 7.42507 14.1999 7.73327L11.7332 10.1999C11.425 10.4858 11.0202 10.6446 10.5999 10.6446C10.1795 10.6446 9.77473 10.4858 9.46654 10.1999L5.79987 6.53327C5.51405 6.22507 5.35522 5.82026 5.35522 5.39993C5.35522 4.9796 5.51405 4.57479 5.79987 4.2666L8.26654 1.79993Z" stroke="#141635" stroke-linecap="round" stroke-linejoin="round"></path>
</g>
<defs>
<clipPath id="clip0_2184_187">
<rect width="16" height="16" fill="white"></rect>
</clipPath>
</defs>
</svg>